<svg width="160" height="40" viewBox="0 0 160 40" fill="none" xmlns="http://www.w3.org/2000/svg">
  <path d="M0 8.00001C0 3.58173 3.58172 0 8 0H32C36.4183 0 40 3.58172 40 8V32C40 36.4183 36.4183 40 32 40H8C3.58172 40 0 36.4183 0 32V8.00001Z" fill="url(#paint0_linear_1_2)"/>
  <path d="M9.33334 30V10H16.6667V24.6667H24.6667V30H9.33334Z" fill="white"/>
  <path d="M30.6667 30H24V10H30.6667V30Z" fill="white"/>
  <path d="M48.9333 30V10H56.2667V24.6667H64.2667V30H48.9333Z" fill="white"/>
  <path d="M70.2667 30H63.6V10H70.2667V30Z" fill="white"/>
  <path d="M72.5333 10H79.8667V30H72.5333V10Z" fill="white"/>
  <path d="M82.1333 10H95.4667V15.3333H89.4667V30H82.1333V10Z" fill="white"/>
  <path d="M112.533 10H119.867V30H112.533V10Z" fill="white"/>
  <path d="M122.133 10H129.467V24.6667H137.467V30H122.133V10Z" fill="white"/>
  <path d="M143.467 30H136.8V10H143.467V30Z" fill="white"/>
  <path d="M145.733 10H153.067V15.3333H159.067V20.6667H153.067V24.6667H159.733V30H145.733V10Z" fill="white"/>
  <path d="M96.8 10H104.133V15.3333H110.133V20.6667H104.133V24.6667H110.8V30H96.8V10Z" fill="white"/>
  <defs>
    <linearGradient id="paint0_linear_1_2" x1="0" y1="0" x2="40" y2="40" gradientUnits="userSpaceOnUse">
      <stop stop-color="#9B1DFF"/>
      <stop offset="1" stop-color="#280059"/>
    </linearGradient>
  </defs>
</svg>